<?xml version="1.0" encoding="UTF-8"?>
<svg id="Layer_1" xmlns="http://www.w3.org/2000/svg" version="1.1" viewBox="0 0 226.77 113.39">
  <!-- Generator: Adobe Illustrator 29.4.0, SVG Export Plug-In . SVG Version: 2.1.0 Build 152)  -->
  <defs>
    <style>
      .st0, .st1 {
        fill: #231f20;
      }

      .st1 {
        stroke: #231f20;
        stroke-miterlimit: 10;
        stroke-width: .5px;
      }
    </style>
  </defs>
  <g>
    <path class="st0" d="M23.93,44.5l-1.86,2.9c-.18-.41-.43-.79-.76-1.14-.33-.35-.7-.66-1.12-.93-.49-.32-1.01-.52-1.56-.63-.55-.1-1.08-.1-1.58,0-.51.1-.98.3-1.43.59-.44.29-.81.66-1.11,1.12-.3.46-.49.96-.57,1.49-.09.53-.07,1.06.04,1.57.12.51.33,1,.65,1.46.32.46.72.85,1.21,1.17.42.27.85.48,1.31.63.46.15.91.23,1.35.22l-1.87,2.92c-.48-.06-.95-.18-1.41-.37-.46-.19-.92-.43-1.37-.71-.93-.6-1.68-1.31-2.26-2.14-.58-.83-.97-1.7-1.17-2.62-.2-.92-.22-1.86-.05-2.83.17-.96.53-1.87,1.08-2.73.54-.85,1.22-1.55,2.02-2.1.81-.55,1.67-.92,2.59-1.12.92-.19,1.88-.2,2.87-.02s1.95.57,2.88,1.17c.45.29.85.61,1.21.97.35.35.66.73.92,1.13Z"/>
    <path class="st0" d="M32.45,62.61v-2.03s-4.98-1.7-4.98-1.7l-1.27,1.59-3.56-1.22,9.56-11.42,3.37,1.15.56,14.88-3.67-1.26ZM32.42,57.59l-.04-4.88-3.04,3.82,3.08,1.06Z"/>
    <path class="st0" d="M49.9,65.66l-2.58-4.67-.2-.02-.37,4.42-3.6-.3,1.16-13.85,4.14.35c.67.06,1.33.18,1.99.37.66.19,1.23.49,1.73.88.5.4.89.92,1.17,1.58.28.66.38,1.48.3,2.46-.07.88-.36,1.61-.86,2.2-.5.59-1.09,1.04-1.78,1.36l3.22,5.58-4.31-.36ZM48.29,54.79l-.65-.05-.29,3.43.67.06c.61.05,1.09-.05,1.45-.32.36-.26.56-.69.61-1.27.05-.61-.1-1.06-.46-1.35-.36-.29-.8-.46-1.33-.5Z"/>
    <path class="st0" d="M67.12,64.88l-5.77.82-1.95-13.76,5.39-.76c1.55-.22,2.68-.02,3.4.59.71.61,1.14,1.44,1.29,2.47.07.53.02,1.06-.17,1.58-.19.53-.5,1-.93,1.41.71.26,1.3.68,1.75,1.24.45.56.73,1.21.83,1.93.07.5.05,1-.06,1.5-.11.49-.32.94-.64,1.34-.31.4-.73.75-1.25,1.04-.52.29-1.15.49-1.87.6ZM64.28,54.14l-.9.13.38,2.67.85-.12c.64-.09,1.11-.27,1.41-.53.3-.26.42-.62.36-1.08-.06-.45-.24-.77-.54-.96-.3-.18-.81-.22-1.55-.12ZM65.11,59.23l-1.01.14.42,2.97,1.03-.15c.75-.11,1.24-.31,1.48-.6.23-.3.32-.67.25-1.13-.07-.53-.29-.89-.65-1.08-.36-.2-.87-.24-1.52-.15Z"/>
    <path class="st0" d="M80.09,46.42c1-.42,2-.63,3.02-.64,1.01,0,1.97.16,2.87.51.9.34,1.71.85,2.42,1.53.71.68,1.27,1.49,1.66,2.43.39.94.58,1.91.57,2.89-.02.99-.22,1.93-.6,2.81-.39.88-.93,1.68-1.65,2.41-.71.72-1.57,1.29-2.57,1.71s-2.01.63-3.04.63c-1.03,0-1.99-.17-2.88-.51-.89-.35-1.7-.86-2.41-1.54-.72-.68-1.27-1.49-1.67-2.43-.39-.94-.58-1.9-.56-2.88.02-.98.22-1.92.6-2.8.38-.88.93-1.68,1.66-2.4.73-.72,1.59-1.29,2.59-1.71ZM81.37,49.48c-.54.23-1,.53-1.38.92-.38.39-.67.82-.87,1.3-.2.48-.29.99-.29,1.52,0,.54.11,1.07.33,1.6.22.53.52.98.9,1.36.38.38.81.67,1.29.86.48.2.99.29,1.54.3.55,0,1.09-.11,1.63-.34.53-.22.98-.53,1.36-.92.38-.39.67-.82.86-1.3.19-.48.29-.99.29-1.53,0-.54-.11-1.07-.33-1.6-.22-.53-.52-.98-.91-1.36-.39-.38-.82-.67-1.29-.86-.47-.2-.98-.3-1.53-.3-.55,0-1.08.11-1.61.33Z"/>
    <path class="st0" d="M106.69,46.69l-9.33-2.52,4.86,6.09-2.82,2.25-8.67-10.86,2.69-2.15,9.35,2.55-4.88-6.12,2.82-2.26,8.67,10.86-2.69,2.15Z"/>
  </g>
  <g>
    <path class="st0" d="M119.34,65.34l2.99,6.48-3.25,1.5-5.82-12.62,3.37-1.55,6.03,3.34,1.18-6.66,3.33-1.54,5.82,12.62-3.25,1.5-2.98-6.46-.38-.87-1.28,6.48-.25.12-5.93-3.22.43.89Z"/>
    <path class="st0" d="M147.36,63.68l-1.02-1.76-5.16.99-.32,2.01-3.7.71,2.64-14.66,3.5-.67,7.86,12.65-3.81.73ZM144.84,59.35l-2.46-4.22-.75,4.83,3.2-.61Z"/>
    <path class="st0" d="M163.23,49.11l-.04,3.07c-.33-.16-.74-.3-1.21-.4s-.92-.15-1.34-.16c-.5,0-.88.06-1.14.19-.26.13-.39.33-.4.6,0,.31.16.61.49.9.33.29.78.72,1.36,1.29,1.09,1.02,1.84,1.88,2.25,2.57.41.69.62,1.4.61,2.12,0,.6-.14,1.13-.41,1.61-.27.48-.63.88-1.09,1.21-.46.33-1,.58-1.63.75-.63.17-1.3.25-2,.25-.27,0-.57-.02-.88-.04-.32-.03-.62-.06-.92-.11-.3-.04-.58-.1-.85-.15-.27-.06-.5-.12-.68-.18l.04-3.07c.37.14.86.28,1.46.43s1.21.22,1.82.22c.45,0,.8-.08,1.07-.25.27-.17.4-.38.4-.63,0-.31-.15-.64-.47-1-.31-.35-.78-.82-1.4-1.4-.55-.5-1.02-.94-1.41-1.32-.38-.38-.69-.74-.92-1.08-.23-.34-.39-.68-.5-1.02-.1-.34-.16-.72-.15-1.13,0-.47.11-.93.31-1.38.21-.45.52-.84.94-1.18.42-.34.95-.61,1.6-.81.65-.2,1.41-.3,2.29-.29.46,0,.94.03,1.43.09.5.06.94.16,1.34.3Z"/>
    <path class="st0" d="M177.87,65.06l-.28-2.01-5.15-1.03-1.05,1.75-3.69-.74,7.96-12.59,3.49.69,2.53,14.68-3.8-.76ZM177.17,60.1l-.69-4.83-2.51,4.19,3.2.64ZM182.07,47.78l-3.06,2.18-2.61-.52,1.91-2.41,3.77.75Z"/>
    <path class="st0" d="M195.05,71.33l-9.71-4.22.13-.49,9.59-7.02-4.78-2.08,2.44-2.35,8.59,3.74-.12.52-9.6,7,5.83,2.53-2.37,2.38ZM198.46,56.42l-2.99-1.3-1.11-3.47,2.68,1.17.43,1.63,1.52-.78,2.77,1.2-3.29,1.55Z"/>
    <path class="st0" d="M200.23,74.26l7.83-11.49,6.82,4.65-1.79,2.63-3.83-2.61-1.26,1.85,3.42,2.33-1.63,2.39-3.42-2.33-1.35,1.99,3.96,2.7-1.79,2.63-6.95-4.73Z"/>
  </g>
  <g>
    <path class="st1" d="M71.41,68.56c3.86-.14,7.1,2.87,7.24,6.73.14,3.86-2.87,7.1-6.73,7.24-3.86.14-7.1-2.87-7.24-6.73-.14-3.86,2.87-7.1,6.73-7.24Z"/>
    <circle class="st1" cx="55.52" cy="77.37" r="5.24"/>
    <path class="st1" d="M87.18,64.49c2.89-.11,5.33,2.16,5.43,5.05.11,2.89-2.16,5.33-5.05,5.43-2.89.11-5.33-2.16-5.43-5.05-.11-2.89,2.16-5.33,5.05-5.43Z"/>
    <path class="st1" d="M99.5,55.82c2.89-.11,5.33,2.16,5.43,5.05.11,2.89-2.16,5.33-5.05,5.43s-5.33-2.16-5.43-5.05,2.16-5.33,5.05-5.43Z"/>
    <path class="st1" d="M111.49,47.95c2.25-.08,4.14,1.68,4.22,3.93s-1.68,4.14-3.93,4.22-4.14-1.68-4.22-3.93,1.68-4.14,3.93-4.22Z"/>
    <circle class="st1" cx="122.09" cy="45.98" r="4.08"/>
    <circle class="st1" cx="133.45" cy="41.48" r="2.91"/>
    <path class="st1" d="M143.58,37.04c1.61-.06,2.96,1.2,3.02,2.8s-1.2,2.96-2.81,3.02c-1.61.06-2.96-1.2-3.02-2.81s1.2-2.96,2.81-3.02Z"/>
    <circle class="st1" cx="154.75" cy="40.07" r="2.91"/>
    <circle class="st1" cx="165.37" cy="42.08" r="2.91"/>
    <path class="st1" d="M42.63,71.64c2.25-.08,4.14,1.68,4.22,3.93.08,2.25-1.68,4.14-3.93,4.22-2.25.08-4.14-1.68-4.22-3.93-.08-2.25,1.68-4.14,3.93-4.22Z"/>
  </g>
</svg>